# Blender v2.79 (sub 0) OBJ File: 'TestPolyhedron.blend'
# www.blender.org
mtllib TestPolyhedron.mtl
o <STL_BINARY>
v -1.576297 -2.207015 -2.005413
v -1.076294 -3.016028 -1.696403
v -1.885307 -2.707018 -1.196400
v -1.576297 -2.207016 1.230647
v -1.885307 -2.707018 0.421634
v -1.076294 -3.016028 0.921637
v -1.576297 0.411022 -0.387382
v -0.767277 0.720032 0.112618
v -0.767277 0.720032 -0.887382
v -1.576297 -3.207018 -0.387383
v -0.767277 -3.516028 -0.887383
v -0.767277 -3.516028 0.112617
v -1.576297 -0.588981 -2.005412
v -1.885307 -0.088978 -1.196399
v -1.076294 0.220032 -1.696402
v -1.576297 -0.588981 1.230648
v -1.076294 0.220031 0.921638
v -1.885307 -0.088978 0.421635
v -0.267277 -2.707018 1.421637
v 0.232723 -1.897999 1.730648
v -0.767277 -1.897999 1.730648
v -0.267277 -2.707018 -2.196403
v -0.767277 -1.897998 -2.505413
v 0.232723 -1.897998 -2.505413
v -0.267277 -0.088978 1.421638
v -0.767277 -0.897999 1.730648
v 0.232723 -0.897999 1.730648
v -0.267277 -0.088978 -2.196402
v 0.232723 -0.897998 -2.505413
v -0.767277 -0.897998 -2.505413
v 1.041743 -2.207015 -2.005413
v 1.350753 -2.707018 -1.196400
v 0.541740 -3.016028 -1.696403
v 1.041743 -2.207016 1.230647
v 0.541740 -3.016028 0.921637
v 1.350753 -2.707018 0.421634
v 1.041743 0.411022 -0.387382
v 0.232723 0.720032 -0.887382
v 0.232723 0.720032 0.112618
v 1.041743 -3.207018 -0.387383
v 0.232723 -3.516028 0.112617
v 0.232723 -3.516028 -0.887383
v 1.041743 -0.588981 -2.005412
v 0.541740 0.220032 -1.696402
v 1.350753 -0.088978 -1.196399
v 1.041743 -0.588981 1.230648
v 1.350753 -0.088978 0.421635
v 0.541740 0.220031 0.921638
v -2.385307 -0.897998 0.112618
v -2.385307 -1.897998 0.112617
v -2.076297 -1.397998 0.921638
v -2.385307 -0.897998 -0.887382
v -2.076297 -1.397998 -1.696403
v -2.385307 -1.897998 -0.887383
v 1.541743 -1.397998 -1.696403
v 1.850753 -0.897998 -0.887382
v 1.850753 -1.897998 -0.887383
v 1.541743 -1.397998 0.921638
v 1.850753 -1.897998 0.112617
v 1.850753 -0.897998 0.112618
vt 0.936720 0.045084
vt 0.862632 0.118033
vt 0.834332 0.000000
vt 0.494066 0.045084
vt 0.575429 0.000000
vt 0.587300 0.118033
vt 0.268057 0.952781
vt 0.239757 0.834747
vt 0.331337 0.834747
vt 0.731943 0.045084
vt 0.760243 0.163118
vt 0.668663 0.163118
vt 0.494066 0.545084
vt 0.575429 0.500000
vt 0.587300 0.618033
vt 0.063280 0.952781
vt 0.137368 0.879832
vt 0.165669 0.997865
vt 0.537015 0.236067
vt 0.443780 0.309017
vt 0.443780 0.163118
vt 0.925911 0.236067
vt 1.000000 0.163118
vt 1.000000 0.309017
vt 0.074089 0.761798
vt 0.000000 0.834747
vt 0.000000 0.688849
vt 0.537015 0.736067
vt 0.443780 0.809017
vt 0.443780 0.663118
vt 0.936720 0.427051
vt 0.834332 0.472135
vt 0.862632 0.354102
vt 0.494066 0.427051
vt 0.587300 0.354102
vt 0.575429 0.472135
vt 0.268057 0.570814
vt 0.331337 0.688849
vt 0.239757 0.688849
vt 0.731943 0.427051
vt 0.668663 0.309017
vt 0.760243 0.309017
vt 0.494066 0.927051
vt 0.587300 0.854102
vt 0.575429 0.972135
vt 0.063280 0.570814
vt 0.165669 0.525730
vt 0.137368 0.643764
vt 0.755761 0.781152
vt 0.863419 0.781152
vt 0.809590 0.899186
vt 0.755761 0.635253
vt 0.809590 0.517219
vt 0.863419 0.635253
vt 0.091579 0.100405
vt 0.183159 0.162459
vt 0.091580 0.239163
vt 0.239759 0.425325
vt 0.148179 0.363271
vt 0.239758 0.286567
vt 0.950516 0.590168
vt 0.896687 0.472135
vt 0.896687 0.944270
vt 0.950516 0.826237
vt 0.656793 0.545084
vt 0.668663 0.663118
vt 0.656793 0.045084
vt 0.668663 0.590168
vt 0.722493 0.472135
vt 0.722493 0.944270
vt 0.668663 0.826237
vt 0.000000 0.262866
vt 0.000000 0.124109
vt 0.183160 0.525730
vt 0.091580 0.463677
vt 0.668663 0.809017
vt 0.656793 0.927051
vt 0.656793 0.427051
vt 0.148178 0.000000
vt 0.239758 0.062053
vt 0.331338 0.262864
vt 0.331338 0.401621
vt 0.343209 0.663118
vt 0.343209 0.809017
vt 0.343209 0.309017
vt 0.343209 0.163118
vt 0.424572 1.000000
vt 0.331338 0.927051
vt 0.331338 0.427051
vt 0.424572 0.500000
vt 0.331337 0.124106
vt 0.000001 0.401624
vn -0.5774 -0.5774 -0.5774
vn -0.5774 -0.5774 0.5774
vn -0.3568 0.9342 0.0000
vn -0.3568 -0.9342 0.0000
vn -0.5774 0.5774 -0.5774
vn -0.5773 0.5774 0.5774
vn 0.0000 -0.3568 0.9342
vn 0.0000 -0.3568 -0.9342
vn 0.0000 0.3568 0.9342
vn 0.0000 0.3568 -0.9342
vn 0.5774 -0.5774 -0.5774
vn 0.5774 -0.5774 0.5774
vn 0.3568 0.9342 0.0000
vn 0.3568 -0.9342 0.0000
vn 0.5774 0.5774 -0.5774
vn 0.5774 0.5774 0.5774
vn -0.9342 0.0000 0.3568
vn -0.9342 0.0000 -0.3568
vn 0.9342 0.0000 -0.3568
vn 0.9342 -0.0000 0.3568
vn -0.8090 -0.3090 -0.5000
vn -0.3090 -0.5000 -0.8090
vn -0.3090 -0.5000 0.8090
vn -0.8090 -0.3090 0.5000
vn -0.5000 0.8090 0.3090
vn -0.5000 0.8090 -0.3090
vn -0.5000 -0.8090 -0.3090
vn -0.5000 -0.8090 0.3090
vn -0.3090 0.5000 -0.8090
vn -0.8090 0.3090 -0.5000
vn -0.8090 0.3090 0.5000
vn -0.3090 0.5000 0.8090
vn 0.3090 -0.5000 0.8090
vn 0.3090 -0.5000 -0.8090
vn 0.3090 0.5000 0.8090
vn 0.3090 0.5000 -0.8090
vn 0.8090 -0.3090 -0.5000
vn 0.8090 -0.3090 0.5000
vn 0.5000 0.8090 0.3090
vn 0.5000 0.8090 -0.3090
vn 0.5000 -0.8090 -0.3090
vn 0.5000 -0.8090 0.3090
vn 0.8090 0.3090 -0.5000
vn 0.8090 0.3090 0.5000
vn -1.0000 0.0000 0.0000
vn 0.0000 -1.0000 0.0000
vn 0.0000 0.0000 -1.0000
vn 0.0000 0.0000 1.0000
vn 0.0000 1.0000 0.0000
vn 1.0000 0.0000 0.0000
vn 0.0000 -0.8507 0.5257
vn 0.0000 -0.8507 -0.5257
vn 0.0000 0.8507 0.5257
vn 0.0000 0.8507 -0.5257
vn 0.5257 0.0000 -0.8507
vn 0.5257 -0.0000 0.8507
vn 0.8507 0.5257 0.0000
vn 0.8507 -0.5257 -0.0000
usemtl Chasis
s 1
f 1/1/1 2/2/1 3/3/1
f 4/4/2 5/5/2 6/6/2
f 7/7/3 8/8/3 9/9/3
f 10/10/4 11/11/4 12/12/4
f 13/13/5 14/14/5 15/15/5
f 16/16/6 17/17/6 18/18/6
f 19/19/7 20/20/7 21/21/7
f 22/22/8 23/23/8 24/24/8
f 25/25/9 26/26/9 27/27/9
f 28/28/10 29/29/10 30/30/10
f 31/31/11 32/32/11 33/33/11
f 34/34/12 35/35/12 36/36/12
f 37/37/13 38/38/13 39/39/13
f 40/40/14 41/41/14 42/42/14
f 43/43/15 44/44/15 45/45/15
f 46/46/16 47/47/16 48/48/16
f 49/49/17 50/50/17 51/51/17
f 52/52/18 53/53/18 54/54/18
f 55/55/19 56/56/19 57/57/19
f 58/58/20 59/59/20 60/60/20
f 3/61/21 54/54/21 53/53/21 1/62/21
f 2/2/22 1/1/22 23/23/22 22/22/22
f 19/19/23 21/21/23 4/4/23 6/6/23
f 4/63/24 51/51/24 50/50/24 5/64/24
f 8/8/25 7/7/25 18/18/25 17/17/25
f 15/15/26 14/14/26 7/65/26 9/66/26
f 10/10/27 3/3/27 2/2/27 11/11/27
f 12/12/28 6/6/28 5/5/28 10/67/28
f 30/30/29 13/13/29 15/15/29 28/28/29
f 53/53/30 52/52/30 14/68/30 13/69/30
f 16/70/31 18/71/31 49/49/31 51/51/31
f 25/25/32 17/17/32 16/16/32 26/26/32
f 34/34/33 20/20/33 19/19/33 35/35/33
f 33/33/34 22/22/34 24/24/34 31/31/34
f 46/46/35 48/48/35 25/25/35 27/27/35
f 29/29/36 28/28/36 44/44/36 43/43/36
f 32/72/37 31/73/37 55/55/37 57/57/37
f 59/59/38 58/58/38 34/74/38 36/75/38
f 47/47/39 37/37/39 39/39/39 48/48/39
f 44/44/40 38/76/40 37/77/40 45/45/40
f 40/40/41 42/42/41 33/33/41 32/32/41
f 36/36/42 35/35/42 41/41/42 40/78/42
f 55/55/43 43/79/43 45/80/43 56/56/43
f 60/60/44 47/81/44 46/82/44 58/58/44
f 54/54/45 50/50/45 49/49/45 52/52/45
f 42/42/46 41/41/46 12/12/46 11/11/46
f 23/83/47 30/30/47 29/29/47 24/84/47
f 20/20/48 27/85/48 26/86/48 21/21/48
f 9/9/49 8/8/49 39/39/49 38/38/49
f 56/56/50 60/60/50 59/59/50 57/57/50
f 35/35/51 19/19/51 6/6/51 12/12/51 41/41/51
f 33/33/52 42/42/52 11/11/52 2/2/52 22/22/52
f 39/39/53 8/8/53 17/17/53 25/25/53 48/48/53
f 28/28/54 15/15/54 9/66/54 38/76/54 44/44/54
f 43/43/55 55/87/55 31/88/55 24/84/55 29/29/55
f 46/89/56 27/85/56 20/20/56 34/34/56 58/90/56
f 37/91/57 47/81/57 60/60/57 56/56/57 45/80/57
f 57/57/58 59/59/58 36/75/58 40/92/58 32/72/58
