# Blender v2.79 (sub 0) OBJ File: 'train.blend'
# www.blender.org
mtllib TestPolyhedron.mtl
o <STL_BINARY>
v -1.309020 -0.809017 -1.618030
v -0.809017 -1.618030 -1.309020
v -1.618030 -1.309020 -0.809017
v -1.309020 -0.809017 1.618030
v -1.618030 -1.309020 0.809017
v -0.809017 -1.618030 1.309020
v -1.309020 1.809020 0.000000
v -0.500000 2.118030 0.500000
v -0.500000 2.118030 -0.500000
v -1.309020 -1.809020 -0.000000
v -0.500000 -2.118030 -0.500000
v -0.500000 -2.118030 0.500000
v -1.309020 0.809017 -1.618030
v -1.618030 1.309020 -0.809017
v -0.809017 1.618030 -1.309020
v -1.309020 0.809017 1.618030
v -0.809017 1.618030 1.309020
v -1.618030 1.309020 0.809017
v 0.000000 -1.309020 1.809020
v 0.500000 -0.500000 2.118030
v -0.500000 -0.500000 2.118030
v 0.000000 -1.309020 -1.809020
v -0.500000 -0.500000 -2.118030
v 0.500000 -0.500000 -2.118030
v 0.000000 1.309020 1.809020
v -0.500000 0.500000 2.118030
v 0.500000 0.500000 2.118030
v 0.000000 1.309020 -1.809020
v 0.500000 0.500000 -2.118030
v -0.500000 0.500000 -2.118030
v 1.309020 -0.809017 -1.618030
v 1.618030 -1.309020 -0.809017
v 0.809017 -1.618030 -1.309020
v 1.309020 -0.809017 1.618030
v 0.809017 -1.618030 1.309020
v 1.618030 -1.309020 0.809017
v 1.309020 1.809020 0.000000
v 0.500000 2.118030 -0.500000
v 0.500000 2.118030 0.500000
v 1.309020 -1.809020 -0.000000
v 0.500000 -2.118030 0.500000
v 0.500000 -2.118030 -0.500000
v 1.309020 0.809017 -1.618030
v 0.809017 1.618030 -1.309020
v 1.618030 1.309020 -0.809017
v 1.309020 0.809017 1.618030
v 1.618030 1.309020 0.809017
v 0.809017 1.618030 1.309020
v -2.118030 0.500000 0.500000
v -2.118030 -0.500000 0.500000
v -1.809020 -0.000000 1.309020
v -2.118030 0.500000 -0.500000
v -1.809020 0.000000 -1.309020
v -2.118030 -0.500000 -0.500000
v 1.809020 0.000000 -1.309020
v 2.118030 0.500000 -0.500000
v 2.118030 -0.500000 -0.500000
v 1.809020 -0.000000 1.309020
v 2.118030 -0.500000 0.500000
v 2.118030 0.500000 0.500000
vt 0.873999 0.627002
vt 0.752002 0.748999
vt 0.873999 0.748999
vt 0.748999 0.752002
vt 0.627002 0.873999
vt 0.748999 0.873999
vt 0.873999 0.377002
vt 0.752002 0.498999
vt 0.873999 0.498999
vt 0.498999 0.752002
vt 0.377002 0.873999
vt 0.498999 0.873999
vt 0.123999 0.877002
vt 0.002002 0.998999
vt 0.123999 0.998999
vt 0.123999 0.002002
vt 0.002002 0.123999
vt 0.123999 0.123999
vt 0.873999 0.502002
vt 0.752002 0.623999
vt 0.873999 0.623999
vt 0.623999 0.752002
vt 0.502002 0.873999
vt 0.623999 0.873999
vt 0.873999 0.752002
vt 0.752002 0.873999
vt 0.873999 0.873999
vt 0.998999 0.002002
vt 0.877002 0.123999
vt 0.998999 0.123999
vt 0.001001 0.122998
vt 0.122998 0.001001
vt 0.001001 0.001001
vt 0.001001 0.997998
vt 0.122998 0.876001
vt 0.001001 0.876001
vt 0.876001 0.122998
vt 0.997998 0.001001
vt 0.876001 0.001001
vt 0.751001 0.872998
vt 0.872998 0.751001
vt 0.751001 0.751001
vt 0.626001 0.872998
vt 0.747998 0.751001
vt 0.626001 0.751001
vt 0.751001 0.747998
vt 0.872998 0.626001
vt 0.751001 0.626001
vt 0.622998 0.751001
vt 0.501001 0.751001
vt 0.501001 0.872998
vt 0.872998 0.501001
vt 0.751001 0.622998
vt 0.751001 0.501001
vt 0.376001 0.872998
vt 0.497998 0.751001
vt 0.376001 0.751001
vt 0.751001 0.497998
vt 0.872998 0.376001
vt 0.751001 0.376001
vt 0.998999 0.126001
vt 0.876001 0.126001
vt 0.876001 0.248999
vt 0.998999 0.248999
vt 0.123999 0.126001
vt 0.001001 0.126001
vt 0.001001 0.248999
vt 0.123999 0.248999
vt 0.248999 0.001001
vt 0.126001 0.001001
vt 0.126001 0.123999
vt 0.248999 0.123999
vt 0.248999 0.126001
vt 0.126001 0.126001
vt 0.126001 0.248999
vt 0.248999 0.248999
vt 0.123999 0.251001
vt 0.001001 0.251001
vt 0.001001 0.373999
vt 0.123999 0.373999
vt 0.373999 0.001001
vt 0.251001 0.001001
vt 0.251001 0.123999
vt 0.373999 0.123999
vt 0.373999 0.126001
vt 0.251001 0.126001
vt 0.251001 0.248999
vt 0.373999 0.248999
vt 0.248999 0.251001
vt 0.126001 0.251001
vt 0.126001 0.373999
vt 0.248999 0.373999
vt 0.373999 0.251001
vt 0.251001 0.251001
vt 0.251001 0.373999
vt 0.373999 0.373999
vt 0.123999 0.376001
vt 0.001001 0.376001
vt 0.001001 0.498999
vt 0.123999 0.498999
vt 0.498999 0.001001
vt 0.376001 0.001001
vt 0.376001 0.123999
vt 0.498999 0.123999
vt 0.248999 0.376001
vt 0.126001 0.376001
vt 0.126001 0.498999
vt 0.248999 0.498999
vt 0.498999 0.126001
vt 0.376001 0.126001
vt 0.376001 0.248999
vt 0.498999 0.248999
vt 0.373999 0.376001
vt 0.251001 0.376001
vt 0.251001 0.498999
vt 0.373999 0.498999
vt 0.498999 0.251001
vt 0.376001 0.251001
vt 0.376001 0.373999
vt 0.498999 0.373999
vt 0.498999 0.376001
vt 0.376001 0.376001
vt 0.376001 0.498999
vt 0.498999 0.498999
vt 0.123999 0.501001
vt 0.001001 0.501001
vt 0.001001 0.623999
vt 0.123999 0.623999
vt 0.623999 0.001001
vt 0.501001 0.001001
vt 0.501001 0.123999
vt 0.623999 0.123999
vt 0.623999 0.126001
vt 0.501001 0.126001
vt 0.501001 0.248999
vt 0.623999 0.248999
vt 0.248999 0.501001
vt 0.126001 0.501001
vt 0.126001 0.623999
vt 0.248999 0.623999
vt 0.373999 0.501001
vt 0.251001 0.501001
vt 0.251001 0.623999
vt 0.373999 0.623999
vt 0.623999 0.251001
vt 0.501001 0.251001
vt 0.501001 0.373999
vt 0.623999 0.373999
vt 0.623999 0.376001
vt 0.501001 0.376001
vt 0.501001 0.498999
vt 0.623999 0.498999
vt 0.498999 0.501001
vt 0.376001 0.501001
vt 0.376001 0.623999
vt 0.498999 0.623999
vt 0.623999 0.501001
vt 0.501001 0.501001
vt 0.501001 0.623999
vt 0.623999 0.623999
vt 0.748999 0.001001
vt 0.626001 0.001001
vt 0.626001 0.123999
vt 0.748999 0.123999
vt 0.123999 0.626001
vt 0.001001 0.626001
vt 0.001001 0.748999
vt 0.123999 0.748999
vt 0.748999 0.126001
vt 0.626001 0.126001
vt 0.626001 0.248999
vt 0.748999 0.248999
vt 0.248999 0.626001
vt 0.126001 0.626001
vt 0.126001 0.748999
vt 0.248999 0.748999
vt 0.373999 0.626001
vt 0.251001 0.626001
vt 0.251001 0.748999
vt 0.373999 0.748999
vt 0.748999 0.274491
vt 0.748999 0.350508
vt 0.672982 0.373999
vt 0.626001 0.312500
vt 0.672982 0.251001
vt 0.376001 0.687500
vt 0.422982 0.626001
vt 0.498999 0.649492
vt 0.498999 0.725508
vt 0.422982 0.748999
vt 0.672982 0.376001
vt 0.748999 0.399492
vt 0.748999 0.475508
vt 0.672982 0.498999
vt 0.626001 0.437500
vt 0.547982 0.748999
vt 0.501001 0.687500
vt 0.547982 0.626001
vt 0.623999 0.649492
vt 0.623999 0.725508
vt 0.672982 0.623999
vt 0.626001 0.562500
vt 0.672982 0.501001
vt 0.748999 0.524492
vt 0.748999 0.600508
vt 0.672982 0.626001
vt 0.748999 0.649492
vt 0.748999 0.725508
vt 0.672982 0.748999
vt 0.626001 0.687500
vt 0.873999 0.024492
vt 0.873999 0.100508
vt 0.797982 0.123999
vt 0.751001 0.062500
vt 0.797982 0.001001
vt 0.001001 0.812500
vt 0.047982 0.751001
vt 0.123999 0.774492
vt 0.123999 0.850508
vt 0.047982 0.873999
vt 0.797982 0.248999
vt 0.751001 0.187500
vt 0.797982 0.126001
vt 0.873999 0.149492
vt 0.873999 0.225508
vt 0.172982 0.751001
vt 0.248999 0.774491
vt 0.248999 0.850508
vt 0.172982 0.873999
vt 0.126001 0.812500
vt 0.251001 0.812500
vt 0.297982 0.751001
vt 0.373999 0.774492
vt 0.373999 0.850508
vt 0.297982 0.873999
vt 0.873999 0.274492
vt 0.873999 0.350508
vt 0.797982 0.373999
vt 0.751001 0.312500
vt 0.797982 0.251001
vn -0.5774 -0.5774 -0.5774
vn -0.5774 -0.5774 0.5774
vn -0.3568 0.9342 0.0000
vn -0.3568 -0.9342 0.0000
vn -0.5774 0.5774 -0.5774
vn -0.5774 0.5774 0.5774
vn 0.0000 -0.3568 0.9342
vn 0.0000 -0.3568 -0.9342
vn 0.0000 0.3568 0.9342
vn 0.0000 0.3568 -0.9342
vn 0.5774 -0.5774 -0.5774
vn 0.5774 -0.5774 0.5774
vn 0.3568 0.9342 0.0000
vn 0.3568 -0.9342 0.0000
vn 0.5774 0.5774 -0.5774
vn 0.5774 0.5774 0.5774
vn -0.9342 0.0000 0.3568
vn -0.9342 0.0000 -0.3568
vn 0.9342 -0.0000 -0.3568
vn 0.9342 0.0000 0.3568
vn -0.8090 -0.3090 -0.5000
vn -0.3090 -0.5000 -0.8090
vn -0.3090 -0.5000 0.8090
vn -0.8090 -0.3090 0.5000
vn -0.5000 0.8090 0.3090
vn -0.5000 0.8090 -0.3090
vn -0.5000 -0.8090 -0.3090
vn -0.5000 -0.8090 0.3090
vn -0.3090 0.5000 -0.8090
vn -0.8090 0.3090 -0.5000
vn -0.8090 0.3090 0.5000
vn -0.3090 0.5000 0.8090
vn 0.3090 -0.5000 0.8090
vn 0.3090 -0.5000 -0.8090
vn 0.3090 0.5000 0.8090
vn 0.3090 0.5000 -0.8090
vn 0.8090 -0.3090 -0.5000
vn 0.8090 -0.3090 0.5000
vn 0.5000 0.8090 0.3090
vn 0.5000 0.8090 -0.3090
vn 0.5000 -0.8090 -0.3090
vn 0.5000 -0.8090 0.3090
vn 0.8090 0.3090 -0.5000
vn 0.8090 0.3090 0.5000
vn -1.0000 0.0000 0.0000
vn 0.0000 -1.0000 0.0000
vn 0.0000 0.0000 -1.0000
vn 0.0000 0.0000 1.0000
vn 0.0000 1.0000 0.0000
vn 1.0000 0.0000 0.0000
vn -0.5257 0.0000 -0.8507
vn -0.5257 -0.0000 0.8507
vn -0.8507 0.5257 0.0000
vn -0.8507 -0.5257 -0.0000
vn 0.0000 -0.8507 0.5257
vn -0.0000 -0.8507 -0.5257
vn 0.0000 0.8507 0.5257
vn 0.0000 0.8507 -0.5257
vn 0.5257 0.0000 -0.8507
vn 0.5257 -0.0000 0.8507
vn 0.8507 0.5257 0.0000
vn 0.8507 -0.5257 -0.0000
usemtl DefaultMaterial
s 1
f 1/1/1 2/2/1 3/3/1
f 4/4/2 5/5/2 6/6/2
f 7/7/3 8/8/3 9/9/3
f 10/10/4 11/11/4 12/12/4
f 13/13/5 14/14/5 15/15/5
f 16/16/6 17/17/6 18/18/6
f 19/19/7 20/20/7 21/21/7
f 22/22/8 23/23/8 24/24/8
f 25/25/9 26/26/9 27/27/9
f 28/28/10 29/29/10 30/30/10
f 31/31/11 32/32/11 33/33/11
f 34/34/12 35/35/12 36/36/12
f 37/37/13 38/38/13 39/39/13
f 40/40/14 41/41/14 42/42/14
f 43/43/15 44/44/15 45/45/15
f 46/46/16 47/47/16 48/48/16
f 49/49/17 50/50/17 51/51/17
f 52/52/18 53/53/18 54/54/18
f 55/55/19 56/56/19 57/57/19
f 58/58/20 59/59/20 60/60/20
f 3/61/21 54/62/21 53/63/21 1/64/21
f 2/65/22 1/66/22 23/67/22 22/68/22
f 19/69/23 21/70/23 4/71/23 6/72/23
f 4/73/24 51/74/24 50/75/24 5/76/24
f 8/77/25 7/78/25 18/79/25 17/80/25
f 15/81/26 14/82/26 7/83/26 9/84/26
f 10/85/27 3/86/27 2/87/27 11/88/27
f 12/89/28 6/90/28 5/91/28 10/92/28
f 30/93/29 13/94/29 15/95/29 28/96/29
f 53/97/30 52/98/30 14/99/30 13/100/30
f 16/101/31 18/102/31 49/103/31 51/104/31
f 25/105/32 17/106/32 16/107/32 26/108/32
f 34/109/33 20/110/33 19/111/33 35/112/33
f 33/113/34 22/114/34 24/115/34 31/116/34
f 46/117/35 48/118/35 25/119/35 27/120/35
f 29/121/36 28/122/36 44/123/36 43/124/36
f 32/125/37 31/126/37 55/127/37 57/128/37
f 59/129/38 58/130/38 34/131/38 36/132/38
f 47/133/39 37/134/39 39/135/39 48/136/39
f 44/137/40 38/138/40 37/139/40 45/140/40
f 40/141/41 42/142/41 33/143/41 32/144/41
f 36/145/42 35/146/42 41/147/42 40/148/42
f 55/149/43 43/150/43 45/151/43 56/152/43
f 60/153/44 47/154/44 46/155/44 58/156/44
f 54/157/45 50/158/45 49/159/45 52/160/45
f 42/161/46 41/162/46 12/163/46 11/164/46
f 23/165/47 30/166/47 29/167/47 24/168/47
f 20/169/48 27/170/48 26/171/48 21/172/48
f 9/173/49 8/174/49 39/175/49 38/176/49
f 56/177/50 60/178/50 59/179/50 57/180/50
f 30/181/51 23/182/51 1/183/51 53/184/51 13/185/51
f 51/186/52 4/187/52 21/188/52 26/189/52 16/190/52
f 14/191/53 52/192/53 49/193/53 18/194/53 7/195/53
f 3/196/54 10/197/54 5/198/54 50/199/54 54/200/54
f 35/201/55 19/202/55 6/203/55 12/204/55 41/205/55
f 33/206/56 42/207/56 11/208/56 2/209/56 22/210/56
f 39/211/57 8/212/57 17/213/57 25/214/57 48/215/57
f 28/216/58 15/217/58 9/218/58 38/219/58 44/220/58
f 43/221/59 55/222/59 31/223/59 24/224/59 29/225/59
f 46/226/60 27/227/60 20/228/60 34/229/60 58/230/60
f 37/231/61 47/232/61 60/233/61 56/234/61 45/235/61
f 57/236/62 59/237/62 36/238/62 40/239/62 32/240/62
